<svg id="visual" viewBox="0 0 900 600" width="900" height="600" xmlns="http://www.w3.org/2000/svg" xmlns:xlink="http://www.w3.org/1999/xlink" version="1.1"><path d="M0 245L15 247.7C30 250.3 60 255.7 90 259.3C120 263 150 265 180 261.7C210 258.3 240 249.7 270 251.3C300 253 330 265 360 269C390 273 420 269 450 262.5C480 256 510 247 540 243C570 239 600 240 630 239.8C660 239.7 690 238.3 720 240.5C750 242.7 780 248.3 810 251.7C840 255 870 256 885 256.5L900 257L900 0L885 0C870 0 840 0 810 0C780 0 750 0 720 0C690 0 660 0 630 0C600 0 570 0 540 0C510 0 480 0 450 0C420 0 390 0 360 0C330 0 300 0 270 0C240 0 210 0 180 0C150 0 120 0 90 0C60 0 30 0 15 0L0 0Z" fill="#510803"></path><path d="M0 200L15 200C30 200 60 200 90 202.8C120 205.7 150 211.3 180 216C210 220.7 240 224.3 270 225C300 225.7 330 223.3 360 223.3C390 223.3 420 225.7 450 224.2C480 222.7 510 217.3 540 213.7C570 210 600 208 630 209.8C660 211.7 690 217.3 720 219.7C750 222 780 221 810 218.8C840 216.7 870 213.3 885 211.7L900 210L900 0L885 0C870 0 840 0 810 0C780 0 750 0 720 0C690 0 660 0 630 0C600 0 570 0 540 0C510 0 480 0 450 0C420 0 390 0 360 0C330 0 300 0 270 0C240 0 210 0 180 0C150 0 120 0 90 0C60 0 30 0 15 0L0 0Z" fill="#6b1210"></path><path d="M0 167L15 167C30 167 60 167 90 170.7C120 174.3 150 181.7 180 180.3C210 179 240 169 270 168.7C300 168.3 330 177.7 360 181.7C390 185.7 420 184.3 450 181.5C480 178.7 510 174.3 540 168.7C570 163 600 156 630 156.2C660 156.3 690 163.7 720 170.7C750 177.7 780 184.3 810 184.2C840 184 870 177 885 173.5L900 170L900 0L885 0C870 0 840 0 810 0C780 0 750 0 720 0C690 0 660 0 630 0C600 0 570 0 540 0C510 0 480 0 450 0C420 0 390 0 360 0C330 0 300 0 270 0C240 0 210 0 180 0C150 0 120 0 90 0C60 0 30 0 15 0L0 0Z" fill="#861d18"></path><path d="M0 128L15 127.5C30 127 60 126 90 127.7C120 129.3 150 133.7 180 134.7C210 135.7 240 133.3 270 134.8C300 136.3 330 141.7 360 141C390 140.3 420 133.7 450 128.8C480 124 510 121 540 123.8C570 126.7 600 135.3 630 133.7C660 132 690 120 720 115C750 110 780 112 810 115.5C840 119 870 124 885 126.5L900 129L900 0L885 0C870 0 840 0 810 0C780 0 750 0 720 0C690 0 660 0 630 0C600 0 570 0 540 0C510 0 480 0 450 0C420 0 390 0 360 0C330 0 300 0 270 0C240 0 210 0 180 0C150 0 120 0 90 0C60 0 30 0 15 0L0 0Z" fill="#a22820"></path><path d="M0 104L15 102C30 100 60 96 90 92.8C120 89.7 150 87.3 180 87.8C210 88.3 240 91.7 270 92.3C300 93 330 91 360 88.5C390 86 420 83 450 81.2C480 79.3 510 78.7 540 81C570 83.3 600 88.7 630 92.8C660 97 690 100 720 99C750 98 780 93 810 91.5C840 90 870 92 885 93L900 94L900 0L885 0C870 0 840 0 810 0C780 0 750 0 720 0C690 0 660 0 630 0C600 0 570 0 540 0C510 0 480 0 450 0C420 0 390 0 360 0C330 0 300 0 270 0C240 0 210 0 180 0C150 0 120 0 90 0C60 0 30 0 15 0L0 0Z" fill="#bf3329"></path><path d="M0 44L15 40.7C30 37.3 60 30.7 90 27.7C120 24.7 150 25.3 180 24.8C210 24.3 240 22.7 270 28.3C300 34 330 47 360 52.3C390 57.7 420 55.3 450 50.5C480 45.7 510 38.3 540 39.3C570 40.3 600 49.7 630 49.8C660 50 690 41 720 38.3C750 35.7 780 39.3 810 44C840 48.7 870 54.3 885 57.2L900 60L900 0L885 0C870 0 840 0 810 0C780 0 750 0 720 0C690 0 660 0 630 0C600 0 570 0 540 0C510 0 480 0 450 0C420 0 390 0 360 0C330 0 300 0 270 0C240 0 210 0 180 0C150 0 120 0 90 0C60 0 30 0 15 0L0 0Z" fill="#dd3f31"></path></svg>