<svg id="visual" viewBox="0 0 960 300" width="960" height="300" xmlns="http://www.w3.org/2000/svg" xmlns:xlink="http://www.w3.org/1999/xlink" version="1.1"><rect x="0" y="0" width="960" height="300" fill="#dd3f31"></rect><path d="M0 127L13.3 124.7C26.7 122.3 53.3 117.7 80 115.8C106.7 114 133.3 115 160 117.2C186.7 119.3 213.3 122.7 240 123.5C266.7 124.3 293.3 122.7 320 123.8C346.7 125 373.3 129 400 130.5C426.7 132 453.3 131 480 127.3C506.7 123.7 533.3 117.3 560 113.2C586.7 109 613.3 107 640 108.5C666.7 110 693.3 115 720 117C746.7 119 773.3 118 800 120.3C826.7 122.7 853.3 128.3 880 131.7C906.7 135 933.3 136 946.7 136.5L960 137L960 0L946.7 0C933.3 0 906.7 0 880 0C853.3 0 826.7 0 800 0C773.3 0 746.7 0 720 0C693.3 0 666.7 0 640 0C613.3 0 586.7 0 560 0C533.3 0 506.7 0 480 0C453.3 0 426.7 0 400 0C373.3 0 346.7 0 320 0C293.3 0 266.7 0 240 0C213.3 0 186.7 0 160 0C133.3 0 106.7 0 80 0C53.3 0 26.7 0 13.3 0L0 0Z" fill="#811b14"></path><path d="M0 81L13.3 84.7C26.7 88.3 53.3 95.7 80 98.5C106.7 101.3 133.3 99.7 160 101C186.7 102.3 213.3 106.7 240 103.8C266.7 101 293.3 91 320 91C346.7 91 373.3 101 400 105.5C426.7 110 453.3 109 480 106.8C506.7 104.7 533.3 101.3 560 101.2C586.7 101 613.3 104 640 103C666.7 102 693.3 97 720 94.5C746.7 92 773.3 92 800 90.7C826.7 89.3 853.3 86.7 880 86.5C906.7 86.3 933.3 88.7 946.7 89.8L960 91L960 0L946.7 0C933.3 0 906.7 0 880 0C853.3 0 826.7 0 800 0C773.3 0 746.7 0 720 0C693.3 0 666.7 0 640 0C613.3 0 586.7 0 560 0C533.3 0 506.7 0 480 0C453.3 0 426.7 0 400 0C373.3 0 346.7 0 320 0C293.3 0 266.7 0 240 0C213.3 0 186.7 0 160 0C133.3 0 106.7 0 80 0C53.3 0 26.7 0 13.3 0L0 0Z" fill="#822c15"></path><path d="M0 83L13.3 82.8C26.7 82.7 53.3 82.3 80 83.2C106.7 84 133.3 86 160 82.7C186.7 79.3 213.3 70.7 240 70C266.7 69.3 293.3 76.7 320 76.8C346.7 77 373.3 70 400 65.2C426.7 60.3 453.3 57.7 480 60.3C506.7 63 533.3 71 560 71.5C586.7 72 613.3 65 640 64.8C666.7 64.7 693.3 71.3 720 75.5C746.7 79.7 773.3 81.3 800 79C826.7 76.7 853.3 70.3 880 68C906.7 65.7 933.3 67.3 946.7 68.2L960 69L960 0L946.7 0C933.3 0 906.7 0 880 0C853.3 0 826.7 0 800 0C773.3 0 746.7 0 720 0C693.3 0 666.7 0 640 0C613.3 0 586.7 0 560 0C533.3 0 506.7 0 480 0C453.3 0 426.7 0 400 0C373.3 0 346.7 0 320 0C293.3 0 266.7 0 240 0C213.3 0 186.7 0 160 0C133.3 0 106.7 0 80 0C53.3 0 26.7 0 13.3 0L0 0Z" fill="#823918"></path><path d="M0 38L13.3 42.2C26.7 46.3 53.3 54.7 80 57.2C106.7 59.7 133.3 56.3 160 54.8C186.7 53.3 213.3 53.7 240 54.5C266.7 55.3 293.3 56.7 320 55.7C346.7 54.7 373.3 51.3 400 48.8C426.7 46.3 453.3 44.7 480 46.5C506.7 48.3 533.3 53.7 560 56C586.7 58.3 613.3 57.7 640 56.3C666.7 55 693.3 53 720 52.2C746.7 51.3 773.3 51.7 800 50C826.7 48.3 853.3 44.7 880 42.8C906.7 41 933.3 41 946.7 41L960 41L960 0L946.7 0C933.3 0 906.7 0 880 0C853.3 0 826.7 0 800 0C773.3 0 746.7 0 720 0C693.3 0 666.7 0 640 0C613.3 0 586.7 0 560 0C533.3 0 506.7 0 480 0C453.3 0 426.7 0 400 0C373.3 0 346.7 0 320 0C293.3 0 266.7 0 240 0C213.3 0 186.7 0 160 0C133.3 0 106.7 0 80 0C53.3 0 26.7 0 13.3 0L0 0Z" fill="#83451e"></path><path d="M0 17L13.3 17.2C26.7 17.3 53.3 17.7 80 20.2C106.7 22.7 133.3 27.3 160 28.8C186.7 30.3 213.3 28.7 240 25.3C266.7 22 293.3 17 320 15.2C346.7 13.3 373.3 14.7 400 15.2C426.7 15.7 453.3 15.3 480 16.2C506.7 17 533.3 19 560 22C586.7 25 613.3 29 640 27.2C666.7 25.3 693.3 17.7 720 16.2C746.7 14.7 773.3 19.3 800 20.2C826.7 21 853.3 18 880 20.5C906.7 23 933.3 31 946.7 35L960 39L960 0L946.7 0C933.3 0 906.7 0 880 0C853.3 0 826.7 0 800 0C773.3 0 746.7 0 720 0C693.3 0 666.7 0 640 0C613.3 0 586.7 0 560 0C533.3 0 506.7 0 480 0C453.3 0 426.7 0 400 0C373.3 0 346.7 0 320 0C293.3 0 266.7 0 240 0C213.3 0 186.7 0 160 0C133.3 0 106.7 0 80 0C53.3 0 26.7 0 13.3 0L0 0Z" fill="#835025"></path></svg>