<svg id="visual" viewBox="0 0 960 300" width="960" height="300" xmlns="http://www.w3.org/2000/svg" xmlns:xlink="http://www.w3.org/1999/xlink" version="1.1"><path d="M0 126L16 127.5C32 129 64 132 96 132.8C128 133.7 160 132.3 192 132.7C224 133 256 135 288 134.8C320 134.7 352 132.3 384 131.3C416 130.3 448 130.7 480 131.2C512 131.7 544 132.3 576 130.7C608 129 640 125 672 125C704 125 736 129 768 130C800 131 832 129 864 129.7C896 130.3 928 133.7 944 135.3L960 137L960 0L944 0C928 0 896 0 864 0C832 0 800 0 768 0C736 0 704 0 672 0C640 0 608 0 576 0C544 0 512 0 480 0C448 0 416 0 384 0C352 0 320 0 288 0C256 0 224 0 192 0C160 0 128 0 96 0C64 0 32 0 16 0L0 0Z" fill="#510803"></path><path d="M0 108L16 107.2C32 106.3 64 104.7 96 102.7C128 100.7 160 98.3 192 98C224 97.7 256 99.3 288 100C320 100.7 352 100.3 384 102.7C416 105 448 110 480 110.8C512 111.7 544 108.3 576 106C608 103.7 640 102.3 672 101.7C704 101 736 101 768 102.2C800 103.3 832 105.7 864 105.2C896 104.7 928 101.3 944 99.7L960 98L960 0L944 0C928 0 896 0 864 0C832 0 800 0 768 0C736 0 704 0 672 0C640 0 608 0 576 0C544 0 512 0 480 0C448 0 416 0 384 0C352 0 320 0 288 0C256 0 224 0 192 0C160 0 128 0 96 0C64 0 32 0 16 0L0 0Z" fill="#681a17"></path><path d="M0 86L16 86.7C32 87.3 64 88.7 96 87.5C128 86.3 160 82.7 192 82.8C224 83 256 87 288 87C320 87 352 83 384 83.2C416 83.3 448 87.7 480 87.7C512 87.7 544 83.3 576 82.7C608 82 640 85 672 84.2C704 83.3 736 78.7 768 78.7C800 78.7 832 83.3 864 85.5C896 87.7 928 87.3 944 87.2L960 87L960 0L944 0C928 0 896 0 864 0C832 0 800 0 768 0C736 0 704 0 672 0C640 0 608 0 576 0C544 0 512 0 480 0C448 0 416 0 384 0C352 0 320 0 288 0C256 0 224 0 192 0C160 0 128 0 96 0C64 0 32 0 16 0L0 0Z" fill="#812b27"></path><path d="M0 60L16 62.2C32 64.3 64 68.7 96 69.5C128 70.3 160 67.7 192 65.8C224 64 256 63 288 62.3C320 61.7 352 61.3 384 63C416 64.7 448 68.3 480 68.2C512 68 544 64 576 61C608 58 640 56 672 58C704 60 736 66 768 67C800 68 832 64 864 61.7C896 59.3 928 58.7 944 58.3L960 58L960 0L944 0C928 0 896 0 864 0C832 0 800 0 768 0C736 0 704 0 672 0C640 0 608 0 576 0C544 0 512 0 480 0C448 0 416 0 384 0C352 0 320 0 288 0C256 0 224 0 192 0C160 0 128 0 96 0C64 0 32 0 16 0L0 0Z" fill="#9a3c39"></path><path d="M0 50L16 48.5C32 47 64 44 96 43.5C128 43 160 45 192 46.2C224 47.3 256 47.7 288 47.3C320 47 352 46 384 44.5C416 43 448 41 480 39.3C512 37.7 544 36.3 576 35.5C608 34.7 640 34.3 672 36C704 37.7 736 41.3 768 41.5C800 41.7 832 38.3 864 39.3C896 40.3 928 45.7 944 48.3L960 51L960 0L944 0C928 0 896 0 864 0C832 0 800 0 768 0C736 0 704 0 672 0C640 0 608 0 576 0C544 0 512 0 480 0C448 0 416 0 384 0C352 0 320 0 288 0C256 0 224 0 192 0C160 0 128 0 96 0C64 0 32 0 16 0L0 0Z" fill="#b34d4b"></path><path d="M0 30L16 29.5C32 29 64 28 96 27.2C128 26.3 160 25.7 192 25.5C224 25.3 256 25.7 288 23.8C320 22 352 18 384 15.3C416 12.7 448 11.3 480 11.2C512 11 544 12 576 12.5C608 13 640 13 672 13C704 13 736 13 768 15.5C800 18 832 23 864 25.3C896 27.7 928 27.3 944 27.2L960 27L960 0L944 0C928 0 896 0 864 0C832 0 800 0 768 0C736 0 704 0 672 0C640 0 608 0 576 0C544 0 512 0 480 0C448 0 416 0 384 0C352 0 320 0 288 0C256 0 224 0 192 0C160 0 128 0 96 0C64 0 32 0 16 0L0 0Z" fill="#cd5f5f"></path></svg>