<svg id="visual" viewBox="0 0 960 300" width="960" height="300" xmlns="http://www.w3.org/2000/svg" xmlns:xlink="http://www.w3.org/1999/xlink" version="1.1"><path d="M0 122L16 123.3C32 124.7 64 127.3 96 129.2C128 131 160 132 192 130.3C224 128.7 256 124.3 288 125.2C320 126 352 132 384 134C416 136 448 134 480 130.8C512 127.7 544 123.3 576 121.3C608 119.3 640 119.7 672 119.5C704 119.3 736 118.7 768 119.7C800 120.7 832 123.3 864 125C896 126.7 928 127.3 944 127.7L960 128L960 0L944 0C928 0 896 0 864 0C832 0 800 0 768 0C736 0 704 0 672 0C640 0 608 0 576 0C544 0 512 0 480 0C448 0 416 0 384 0C352 0 320 0 288 0C256 0 224 0 192 0C160 0 128 0 96 0C64 0 32 0 16 0L0 0Z" fill="#510803"></path><path d="M0 100L16 100C32 100 64 100 96 101.3C128 102.7 160 105.3 192 107.7C224 110 256 112 288 112.3C320 112.7 352 111.3 384 111.2C416 111 448 112 480 111.3C512 110.7 544 108.3 576 106.5C608 104.7 640 103.3 672 104.2C704 105 736 108 768 109.3C800 110.7 832 110.3 864 109.3C896 108.3 928 106.7 944 105.8L960 105L960 0L944 0C928 0 896 0 864 0C832 0 800 0 768 0C736 0 704 0 672 0C640 0 608 0 576 0C544 0 512 0 480 0C448 0 416 0 384 0C352 0 320 0 288 0C256 0 224 0 192 0C160 0 128 0 96 0C64 0 32 0 16 0L0 0Z" fill="#6b1210"></path><path d="M0 83L16 83C32 83 64 83 96 84.8C128 86.7 160 90.3 192 89.7C224 89 256 84 288 83.8C320 83.7 352 88.3 384 90.3C416 92.3 448 91.7 480 90.2C512 88.7 544 86.3 576 83.5C608 80.7 640 77.3 672 77.5C704 77.7 736 81.3 768 84.8C800 88.3 832 91.7 864 91.7C896 91.7 928 88.3 944 86.7L960 85L960 0L944 0C928 0 896 0 864 0C832 0 800 0 768 0C736 0 704 0 672 0C640 0 608 0 576 0C544 0 512 0 480 0C448 0 416 0 384 0C352 0 320 0 288 0C256 0 224 0 192 0C160 0 128 0 96 0C64 0 32 0 16 0L0 0Z" fill="#861d18"></path><path d="M0 64L16 63.7C32 63.3 64 62.7 96 63.3C128 64 160 66 192 66.5C224 67 256 66 288 66.8C320 67.7 352 70.3 384 70C416 69.7 448 66.3 480 63.8C512 61.3 544 59.7 576 61C608 62.3 640 66.7 672 65.8C704 65 736 59 768 56.5C800 54 832 55 864 56.8C896 58.7 928 61.3 944 62.7L960 64L960 0L944 0C928 0 896 0 864 0C832 0 800 0 768 0C736 0 704 0 672 0C640 0 608 0 576 0C544 0 512 0 480 0C448 0 416 0 384 0C352 0 320 0 288 0C256 0 224 0 192 0C160 0 128 0 96 0C64 0 32 0 16 0L0 0Z" fill="#a22820"></path><path d="M0 51L16 50.2C32 49.3 64 47.7 96 46.2C128 44.7 160 43.3 192 43.5C224 43.7 256 45.3 288 45.7C320 46 352 45 384 43.7C416 42.3 448 40.7 480 39.8C512 39 544 39 576 40.3C608 41.7 640 44.3 672 46.3C704 48.3 736 49.7 768 49.2C800 48.7 832 46.3 864 45.7C896 45 928 46 944 46.5L960 47L960 0L944 0C928 0 896 0 864 0C832 0 800 0 768 0C736 0 704 0 672 0C640 0 608 0 576 0C544 0 512 0 480 0C448 0 416 0 384 0C352 0 320 0 288 0C256 0 224 0 192 0C160 0 128 0 96 0C64 0 32 0 16 0L0 0Z" fill="#bf3329"></path><path d="M0 22L16 20.3C32 18.7 64 15.3 96 13.7C128 12 160 12 192 11.7C224 11.3 256 10.7 288 13.7C320 16.7 352 23.3 384 26C416 28.7 448 27.3 480 24.8C512 22.3 544 18.7 576 19.2C608 19.7 640 24.3 672 24.3C704 24.3 736 19.7 768 18.3C800 17 832 19 864 21.5C896 24 928 27 944 28.5L960 30L960 0L944 0C928 0 896 0 864 0C832 0 800 0 768 0C736 0 704 0 672 0C640 0 608 0 576 0C544 0 512 0 480 0C448 0 416 0 384 0C352 0 320 0 288 0C256 0 224 0 192 0C160 0 128 0 96 0C64 0 32 0 16 0L0 0Z" fill="#dd3f31"></path></svg>