<svg id="visual" viewBox="0 0 960 300" width="960" height="300" xmlns="http://www.w3.org/2000/svg" xmlns:xlink="http://www.w3.org/1999/xlink" version="1.1"><rect x="0" y="0" width="960" height="300" fill="#252424"></rect><path d="M0 130L16 136.3C32 142.7 64 155.3 96 161.2C128 167 160 166 192 167.8C224 169.7 256 174.3 288 175.3C320 176.3 352 173.7 384 165.2C416 156.7 448 142.3 480 138C512 133.7 544 139.3 576 138.8C608 138.3 640 131.7 672 130.8C704 130 736 135 768 144.8C800 154.7 832 169.3 864 176.3C896 183.3 928 182.7 944 182.3L960 182L960 0L944 0C928 0 896 0 864 0C832 0 800 0 768 0C736 0 704 0 672 0C640 0 608 0 576 0C544 0 512 0 480 0C448 0 416 0 384 0C352 0 320 0 288 0C256 0 224 0 192 0C160 0 128 0 96 0C64 0 32 0 16 0L0 0Z" fill="#510803"></path><path d="M0 155L16 155.2C32 155.3 64 155.7 96 148.8C128 142 160 128 192 119C224 110 256 106 288 105.5C320 105 352 108 384 108.5C416 109 448 107 480 106.2C512 105.3 544 105.7 576 111.7C608 117.7 640 129.3 672 129.5C704 129.7 736 118.3 768 113.8C800 109.3 832 111.7 864 110.2C896 108.7 928 103.3 944 100.7L960 98L960 0L944 0C928 0 896 0 864 0C832 0 800 0 768 0C736 0 704 0 672 0C640 0 608 0 576 0C544 0 512 0 480 0C448 0 416 0 384 0C352 0 320 0 288 0C256 0 224 0 192 0C160 0 128 0 96 0C64 0 32 0 16 0L0 0Z" fill="#681a17"></path><path d="M0 85L16 83C32 81 64 77 96 80.3C128 83.7 160 94.3 192 96.7C224 99 256 93 288 93.5C320 94 352 101 384 104.5C416 108 448 108 480 111.2C512 114.3 544 120.7 576 121.7C608 122.7 640 118.3 672 118.5C704 118.7 736 123.3 768 119.3C800 115.3 832 102.7 864 94.8C896 87 928 84 944 82.5L960 81L960 0L944 0C928 0 896 0 864 0C832 0 800 0 768 0C736 0 704 0 672 0C640 0 608 0 576 0C544 0 512 0 480 0C448 0 416 0 384 0C352 0 320 0 288 0C256 0 224 0 192 0C160 0 128 0 96 0C64 0 32 0 16 0L0 0Z" fill="#812b27"></path><path d="M0 84L16 86.3C32 88.7 64 93.3 96 95.7C128 98 160 98 192 92.2C224 86.3 256 74.7 288 73.7C320 72.7 352 82.3 384 84C416 85.7 448 79.3 480 77.3C512 75.3 544 77.7 576 80.8C608 84 640 88 672 84.3C704 80.7 736 69.3 768 69.7C800 70 832 82 864 84C896 86 928 78 944 74L960 70L960 0L944 0C928 0 896 0 864 0C832 0 800 0 768 0C736 0 704 0 672 0C640 0 608 0 576 0C544 0 512 0 480 0C448 0 416 0 384 0C352 0 320 0 288 0C256 0 224 0 192 0C160 0 128 0 96 0C64 0 32 0 16 0L0 0Z" fill="#9a3c39"></path><path d="M0 65L16 62.2C32 59.3 64 53.7 96 48.5C128 43.3 160 38.7 192 37.8C224 37 256 40 288 44.5C320 49 352 55 384 55.2C416 55.3 448 49.7 480 44.8C512 40 544 36 576 41C608 46 640 60 672 61C704 62 736 50 768 47.7C800 45.3 832 52.7 864 54.3C896 56 928 52 944 50L960 48L960 0L944 0C928 0 896 0 864 0C832 0 800 0 768 0C736 0 704 0 672 0C640 0 608 0 576 0C544 0 512 0 480 0C448 0 416 0 384 0C352 0 320 0 288 0C256 0 224 0 192 0C160 0 128 0 96 0C64 0 32 0 16 0L0 0Z" fill="#b34d4b"></path><path d="M0 31L16 32.3C32 33.7 64 36.3 96 34C128 31.7 160 24.3 192 20.5C224 16.7 256 16.3 288 17.2C320 18 352 20 384 25C416 30 448 38 480 36.5C512 35 544 24 576 18.8C608 13.7 640 14.3 672 17.7C704 21 736 27 768 31.7C800 36.3 832 39.7 864 36.2C896 32.7 928 22.3 944 17.2L960 12L960 0L944 0C928 0 896 0 864 0C832 0 800 0 768 0C736 0 704 0 672 0C640 0 608 0 576 0C544 0 512 0 480 0C448 0 416 0 384 0C352 0 320 0 288 0C256 0 224 0 192 0C160 0 128 0 96 0C64 0 32 0 16 0L0 0Z" fill="#cd5f5f"></path></svg>