<svg id="visual" viewBox="0 0 900 600" width="900" height="600" xmlns="http://www.w3.org/2000/svg" xmlns:xlink="http://www.w3.org/1999/xlink" version="1.1"><path d="M0 209L15 202C30 195 60 181 90 182.8C120 184.7 150 202.3 180 216.2C210 230 240 240 270 237.2C300 234.3 330 218.7 360 206.3C390 194 420 185 450 179.2C480 173.3 510 170.7 540 171C570 171.3 600 174.7 630 182.8C660 191 690 204 720 209.8C750 215.7 780 214.3 810 213.5C840 212.7 870 212.3 885 212.2L900 212L900 0L885 0C870 0 840 0 810 0C780 0 750 0 720 0C690 0 660 0 630 0C600 0 570 0 540 0C510 0 480 0 450 0C420 0 390 0 360 0C330 0 300 0 270 0C240 0 210 0 180 0C150 0 120 0 90 0C60 0 30 0 15 0L0 0Z" fill="#510803"></path><path d="M0 164L15 159C30 154 60 144 90 145.5C120 147 150 160 180 167.5C210 175 240 177 270 177.2C300 177.3 330 175.7 360 171.2C390 166.7 420 159.3 450 155.7C480 152 510 152 540 150.3C570 148.7 600 145.3 630 148.3C660 151.3 690 160.7 720 166.8C750 173 780 176 810 174.2C840 172.3 870 165.7 885 162.3L900 159L900 0L885 0C870 0 840 0 810 0C780 0 750 0 720 0C690 0 660 0 630 0C600 0 570 0 540 0C510 0 480 0 450 0C420 0 390 0 360 0C330 0 300 0 270 0C240 0 210 0 180 0C150 0 120 0 90 0C60 0 30 0 15 0L0 0Z" fill="#6b1210"></path><path d="M0 142L15 135.5C30 129 60 116 90 121.7C120 127.3 150 151.7 180 152C210 152.3 240 128.7 270 122.5C300 116.3 330 127.7 360 138.7C390 149.7 420 160.3 450 159.5C480 158.7 510 146.3 540 142.7C570 139 600 144 630 144C660 144 690 139 720 131.5C750 124 780 114 810 109.3C840 104.7 870 105.3 885 105.7L900 106L900 0L885 0C870 0 840 0 810 0C780 0 750 0 720 0C690 0 660 0 630 0C600 0 570 0 540 0C510 0 480 0 450 0C420 0 390 0 360 0C330 0 300 0 270 0C240 0 210 0 180 0C150 0 120 0 90 0C60 0 30 0 15 0L0 0Z" fill="#861d18"></path><path d="M0 91L15 95.5C30 100 60 109 90 109.7C120 110.3 150 102.7 180 101.2C210 99.7 240 104.3 270 107.3C300 110.3 330 111.7 360 114C390 116.3 420 119.7 450 122.5C480 125.3 510 127.7 540 130.2C570 132.7 600 135.3 630 131C660 126.7 690 115.3 720 111.5C750 107.7 780 111.3 810 109C840 106.7 870 98.3 885 94.2L900 90L900 0L885 0C870 0 840 0 810 0C780 0 750 0 720 0C690 0 660 0 630 0C600 0 570 0 540 0C510 0 480 0 450 0C420 0 390 0 360 0C330 0 300 0 270 0C240 0 210 0 180 0C150 0 120 0 90 0C60 0 30 0 15 0L0 0Z" fill="#a22820"></path><path d="M0 72L15 72.2C30 72.3 60 72.7 90 76.8C120 81 150 89 180 91.7C210 94.3 240 91.7 270 88.8C300 86 330 83 360 76.2C390 69.3 420 58.7 450 56.7C480 54.7 510 61.3 540 64.3C570 67.3 600 66.7 630 63.2C660 59.7 690 53.3 720 54.2C750 55 780 63 810 71.7C840 80.3 870 89.7 885 94.3L900 99L900 0L885 0C870 0 840 0 810 0C780 0 750 0 720 0C690 0 660 0 630 0C600 0 570 0 540 0C510 0 480 0 450 0C420 0 390 0 360 0C330 0 300 0 270 0C240 0 210 0 180 0C150 0 120 0 90 0C60 0 30 0 15 0L0 0Z" fill="#bf3329"></path><path d="M0 21L15 21.7C30 22.3 60 23.7 90 27.7C120 31.7 150 38.3 180 42.7C210 47 240 49 270 48.2C300 47.3 330 43.7 360 45C390 46.3 420 52.7 450 55C480 57.3 510 55.7 540 54.2C570 52.7 600 51.3 630 49C660 46.7 690 43.3 720 39.8C750 36.3 780 32.7 810 30.2C840 27.7 870 26.3 885 25.7L900 25L900 0L885 0C870 0 840 0 810 0C780 0 750 0 720 0C690 0 660 0 630 0C600 0 570 0 540 0C510 0 480 0 450 0C420 0 390 0 360 0C330 0 300 0 270 0C240 0 210 0 180 0C150 0 120 0 90 0C60 0 30 0 15 0L0 0Z" fill="#dd3f31"></path></svg>