<svg id="visual" viewBox="0 0 960 300" width="960" height="300" xmlns="http://www.w3.org/2000/svg" xmlns:xlink="http://www.w3.org/1999/xlink" version="1.1"><path d="M0 134L16 132.2C32 130.3 64 126.7 96 127C128 127.3 160 131.7 192 131.8C224 132 256 128 288 126C320 124 352 124 384 125.5C416 127 448 130 480 132.2C512 134.3 544 135.7 576 133C608 130.3 640 123.7 672 122C704 120.3 736 123.7 768 125.3C800 127 832 127 864 126.8C896 126.7 928 126.3 944 126.2L960 126L960 0L944 0C928 0 896 0 864 0C832 0 800 0 768 0C736 0 704 0 672 0C640 0 608 0 576 0C544 0 512 0 480 0C448 0 416 0 384 0C352 0 320 0 288 0C256 0 224 0 192 0C160 0 128 0 96 0C64 0 32 0 16 0L0 0Z" fill="#510803"></path><path d="M0 103L16 104.3C32 105.7 64 108.3 96 107.5C128 106.7 160 102.3 192 101.8C224 101.3 256 104.7 288 106.2C320 107.7 352 107.3 384 107C416 106.7 448 106.3 480 105.2C512 104 544 102 576 101.8C608 101.7 640 103.3 672 105C704 106.7 736 108.3 768 108.7C800 109 832 108 864 105.7C896 103.3 928 99.7 944 97.8L960 96L960 0L944 0C928 0 896 0 864 0C832 0 800 0 768 0C736 0 704 0 672 0C640 0 608 0 576 0C544 0 512 0 480 0C448 0 416 0 384 0C352 0 320 0 288 0C256 0 224 0 192 0C160 0 128 0 96 0C64 0 32 0 16 0L0 0Z" fill="#681a17"></path><path d="M0 93L16 89.8C32 86.7 64 80.3 96 78.3C128 76.3 160 78.7 192 82C224 85.3 256 89.7 288 90.2C320 90.7 352 87.3 384 85C416 82.7 448 81.3 480 82.8C512 84.3 544 88.7 576 90.5C608 92.3 640 91.7 672 91.8C704 92 736 93 768 92.8C800 92.7 832 91.3 864 90.7C896 90 928 90 944 90L960 90L960 0L944 0C928 0 896 0 864 0C832 0 800 0 768 0C736 0 704 0 672 0C640 0 608 0 576 0C544 0 512 0 480 0C448 0 416 0 384 0C352 0 320 0 288 0C256 0 224 0 192 0C160 0 128 0 96 0C64 0 32 0 16 0L0 0Z" fill="#812b27"></path><path d="M0 67L16 65C32 63 64 59 96 59.3C128 59.7 160 64.3 192 65C224 65.7 256 62.3 288 62.7C320 63 352 67 384 67C416 67 448 63 480 63.3C512 63.7 544 68.3 576 69C608 69.7 640 66.3 672 65.2C704 64 736 65 768 65.5C800 66 832 66 864 67C896 68 928 70 944 71L960 72L960 0L944 0C928 0 896 0 864 0C832 0 800 0 768 0C736 0 704 0 672 0C640 0 608 0 576 0C544 0 512 0 480 0C448 0 416 0 384 0C352 0 320 0 288 0C256 0 224 0 192 0C160 0 128 0 96 0C64 0 32 0 16 0L0 0Z" fill="#9a3c39"></path><path d="M0 32L16 35.2C32 38.3 64 44.7 96 48C128 51.3 160 51.7 192 51.5C224 51.3 256 50.7 288 48.8C320 47 352 44 384 41.8C416 39.7 448 38.3 480 39.5C512 40.7 544 44.3 576 44.2C608 44 640 40 672 38.3C704 36.7 736 37.3 768 38C800 38.7 832 39.3 864 39C896 38.7 928 37.3 944 36.7L960 36L960 0L944 0C928 0 896 0 864 0C832 0 800 0 768 0C736 0 704 0 672 0C640 0 608 0 576 0C544 0 512 0 480 0C448 0 416 0 384 0C352 0 320 0 288 0C256 0 224 0 192 0C160 0 128 0 96 0C64 0 32 0 16 0L0 0Z" fill="#b34d4b"></path><path d="M0 11L16 12.2C32 13.3 64 15.7 96 16.7C128 17.7 160 17.3 192 17.3C224 17.3 256 17.7 288 17.8C320 18 352 18 384 20C416 22 448 26 480 25.2C512 24.3 544 18.7 576 18.3C608 18 640 23 672 22.5C704 22 736 16 768 14.5C800 13 832 16 864 16.8C896 17.7 928 16.3 944 15.7L960 15L960 0L944 0C928 0 896 0 864 0C832 0 800 0 768 0C736 0 704 0 672 0C640 0 608 0 576 0C544 0 512 0 480 0C448 0 416 0 384 0C352 0 320 0 288 0C256 0 224 0 192 0C160 0 128 0 96 0C64 0 32 0 16 0L0 0Z" fill="#cd5f5f"></path></svg>