<svg id="visual" viewBox="0 0 960 300" width="960" height="300" xmlns="http://www.w3.org/2000/svg" xmlns:xlink="http://www.w3.org/1999/xlink" version="1.1"><rect x="0" y="0" width="960" height="300" fill="#252424"></rect><path d="M0 160L16 161.7C32 163.3 64 166.7 96 165C128 163.3 160 156.7 192 151.5C224 146.3 256 142.7 288 141.2C320 139.7 352 140.3 384 143C416 145.7 448 150.3 480 148C512 145.7 544 136.3 576 139.3C608 142.3 640 157.7 672 155.7C704 153.7 736 134.3 768 127C800 119.7 832 124.3 864 124.3C896 124.3 928 119.7 944 117.3L960 115L960 0L944 0C928 0 896 0 864 0C832 0 800 0 768 0C736 0 704 0 672 0C640 0 608 0 576 0C544 0 512 0 480 0C448 0 416 0 384 0C352 0 320 0 288 0C256 0 224 0 192 0C160 0 128 0 96 0C64 0 32 0 16 0L0 0Z" fill="#510803"></path><path d="M0 153L16 151.8C32 150.7 64 148.3 96 145.5C128 142.7 160 139.3 192 138.3C224 137.3 256 138.7 288 136.7C320 134.7 352 129.3 384 127.7C416 126 448 128 480 123.2C512 118.3 544 106.7 576 106.2C608 105.7 640 116.3 672 121C704 125.7 736 124.3 768 126.2C800 128 832 133 864 136.7C896 140.3 928 142.7 944 143.8L960 145L960 0L944 0C928 0 896 0 864 0C832 0 800 0 768 0C736 0 704 0 672 0C640 0 608 0 576 0C544 0 512 0 480 0C448 0 416 0 384 0C352 0 320 0 288 0C256 0 224 0 192 0C160 0 128 0 96 0C64 0 32 0 16 0L0 0Z" fill="#681a17"></path><path d="M0 102L16 98.5C32 95 64 88 96 84.2C128 80.3 160 79.7 192 86.5C224 93.3 256 107.7 288 114.3C320 121 352 120 384 115.2C416 110.3 448 101.7 480 98.3C512 95 544 97 576 100.3C608 103.7 640 108.3 672 112.8C704 117.3 736 121.7 768 116.7C800 111.7 832 97.3 864 96.8C896 96.3 928 109.7 944 116.3L960 123L960 0L944 0C928 0 896 0 864 0C832 0 800 0 768 0C736 0 704 0 672 0C640 0 608 0 576 0C544 0 512 0 480 0C448 0 416 0 384 0C352 0 320 0 288 0C256 0 224 0 192 0C160 0 128 0 96 0C64 0 32 0 16 0L0 0Z" fill="#812b27"></path><path d="M0 93L16 92.7C32 92.3 64 91.7 96 87C128 82.3 160 73.7 192 68.3C224 63 256 61 288 63.7C320 66.3 352 73.7 384 77.5C416 81.3 448 81.7 480 83.5C512 85.3 544 88.7 576 85C608 81.3 640 70.7 672 72C704 73.3 736 86.7 768 90.3C800 94 832 88 864 80.7C896 73.3 928 64.7 944 60.3L960 56L960 0L944 0C928 0 896 0 864 0C832 0 800 0 768 0C736 0 704 0 672 0C640 0 608 0 576 0C544 0 512 0 480 0C448 0 416 0 384 0C352 0 320 0 288 0C256 0 224 0 192 0C160 0 128 0 96 0C64 0 32 0 16 0L0 0Z" fill="#9a3c39"></path><path d="M0 34L16 40C32 46 64 58 96 61.5C128 65 160 60 192 60.3C224 60.7 256 66.3 288 69C320 71.7 352 71.3 384 67.3C416 63.3 448 55.7 480 53.7C512 51.7 544 55.3 576 55C608 54.7 640 50.3 672 48.7C704 47 736 48 768 50C800 52 832 55 864 56C896 57 928 56 944 55.5L960 55L960 0L944 0C928 0 896 0 864 0C832 0 800 0 768 0C736 0 704 0 672 0C640 0 608 0 576 0C544 0 512 0 480 0C448 0 416 0 384 0C352 0 320 0 288 0C256 0 224 0 192 0C160 0 128 0 96 0C64 0 32 0 16 0L0 0Z" fill="#b34d4b"></path><path d="M0 20L16 18.8C32 17.7 64 15.3 96 14.2C128 13 160 13 192 15.5C224 18 256 23 288 25.2C320 27.3 352 26.7 384 26.3C416 26 448 26 480 25.7C512 25.3 544 24.7 576 25.7C608 26.7 640 29.3 672 30.2C704 31 736 30 768 28.3C800 26.7 832 24.3 864 26.5C896 28.7 928 35.3 944 38.7L960 42L960 0L944 0C928 0 896 0 864 0C832 0 800 0 768 0C736 0 704 0 672 0C640 0 608 0 576 0C544 0 512 0 480 0C448 0 416 0 384 0C352 0 320 0 288 0C256 0 224 0 192 0C160 0 128 0 96 0C64 0 32 0 16 0L0 0Z" fill="#cd5f5f"></path></svg>