<svg id="visual" viewBox="0 0 960 300" width="960" height="300" xmlns="http://www.w3.org/2000/svg" xmlns:xlink="http://www.w3.org/1999/xlink" version="1.1"><rect x="0" y="0" width="960" height="300" fill="#252424"></rect><path d="M0 98L20 100C40 102 80 106 120 109.2C160 112.3 200 114.7 240 110.2C280 105.7 320 94.3 360 91.7C400 89 440 95 480 100.2C520 105.3 560 109.7 600 109C640 108.3 680 102.7 720 102C760 101.3 800 105.7 840 107.7C880 109.7 920 109.3 940 109.2L960 109L960 0L940 0C920 0 880 0 840 0C800 0 760 0 720 0C680 0 640 0 600 0C560 0 520 0 480 0C440 0 400 0 360 0C320 0 280 0 240 0C200 0 160 0 120 0C80 0 40 0 20 0L0 0Z" fill="#510803"></path><path d="M0 92L20 88.2C40 84.3 80 76.7 120 76.2C160 75.7 200 82.3 240 81.8C280 81.3 320 73.7 360 74C400 74.3 440 82.7 480 87.7C520 92.7 560 94.3 600 91.7C640 89 680 82 720 79.3C760 76.7 800 78.3 840 76.7C880 75 920 70 940 67.5L960 65L960 0L940 0C920 0 880 0 840 0C800 0 760 0 720 0C680 0 640 0 600 0C560 0 520 0 480 0C440 0 400 0 360 0C320 0 280 0 240 0C200 0 160 0 120 0C80 0 40 0 20 0L0 0Z" fill="#6b1210"></path><path d="M0 53L20 54C40 55 80 57 120 61.5C160 66 200 73 240 72C280 71 320 62 360 62.3C400 62.7 440 72.3 480 72.8C520 73.3 560 64.7 600 61.2C640 57.7 680 59.3 720 63.2C760 67 800 73 840 73.3C880 73.7 920 68.3 940 65.7L960 63L960 0L940 0C920 0 880 0 840 0C800 0 760 0 720 0C680 0 640 0 600 0C560 0 520 0 480 0C440 0 400 0 360 0C320 0 280 0 240 0C200 0 160 0 120 0C80 0 40 0 20 0L0 0Z" fill="#861d18"></path><path d="M0 62L20 59.5C40 57 80 52 120 52.5C160 53 200 59 240 62.2C280 65.3 320 65.7 360 65.2C400 64.7 440 63.3 480 63.2C520 63 560 64 600 64C640 64 680 63 720 58.5C760 54 800 46 840 45C880 44 920 50 940 53L960 56L960 0L940 0C920 0 880 0 840 0C800 0 760 0 720 0C680 0 640 0 600 0C560 0 520 0 480 0C440 0 400 0 360 0C320 0 280 0 240 0C200 0 160 0 120 0C80 0 40 0 20 0L0 0Z" fill="#a22820"></path><path d="M0 29L20 29.3C40 29.7 80 30.3 120 30.7C160 31 200 31 240 32.2C280 33.3 320 35.7 360 37.8C400 40 440 42 480 40.5C520 39 560 34 600 34.3C640 34.7 680 40.3 720 40.3C760 40.3 800 34.7 840 32.8C880 31 920 33 940 34L960 35L960 0L940 0C920 0 880 0 840 0C800 0 760 0 720 0C680 0 640 0 600 0C560 0 520 0 480 0C440 0 400 0 360 0C320 0 280 0 240 0C200 0 160 0 120 0C80 0 40 0 20 0L0 0Z" fill="#bf3329"></path><path d="M0 18L20 18.8C40 19.7 80 21.3 120 21.5C160 21.7 200 20.3 240 21.2C280 22 320 25 360 26.5C400 28 440 28 480 26.7C520 25.3 560 22.7 600 21.7C640 20.7 680 21.3 720 22C760 22.7 800 23.3 840 22.8C880 22.3 920 20.7 940 19.8L960 19L960 0L940 0C920 0 880 0 840 0C800 0 760 0 720 0C680 0 640 0 600 0C560 0 520 0 480 0C440 0 400 0 360 0C320 0 280 0 240 0C200 0 160 0 120 0C80 0 40 0 20 0L0 0Z" fill="#dd3f31"></path></svg>