<svg id="visual" viewBox="0 0 960 300" width="960" height="300" xmlns="http://www.w3.org/2000/svg" xmlns:xlink="http://www.w3.org/1999/xlink" version="1.1"><rect x="0" y="0" width="960" height="300" fill="#dd3f31"></rect><path d="M0 102L13.3 106.3C26.7 110.7 53.3 119.3 80 119.8C106.7 120.3 133.3 112.7 160 112C186.7 111.3 213.3 117.7 240 120C266.7 122.3 293.3 120.7 320 121.5C346.7 122.3 373.3 125.7 400 123.7C426.7 121.7 453.3 114.3 480 112.2C506.7 110 533.3 113 560 113C586.7 113 613.3 110 640 109.3C666.7 108.7 693.3 110.3 720 113.2C746.7 116 773.3 120 800 123.5C826.7 127 853.3 130 880 131.8C906.7 133.7 933.3 134.3 946.7 134.7L960 135L960 0L946.7 0C933.3 0 906.7 0 880 0C853.3 0 826.7 0 800 0C773.3 0 746.7 0 720 0C693.3 0 666.7 0 640 0C613.3 0 586.7 0 560 0C533.3 0 506.7 0 480 0C453.3 0 426.7 0 400 0C373.3 0 346.7 0 320 0C293.3 0 266.7 0 240 0C213.3 0 186.7 0 160 0C133.3 0 106.7 0 80 0C53.3 0 26.7 0 13.3 0L0 0Z" fill="#811b14"></path><path d="M0 100L13.3 101.7C26.7 103.3 53.3 106.7 80 108.5C106.7 110.3 133.3 110.7 160 106C186.7 101.3 213.3 91.7 240 91C266.7 90.3 293.3 98.7 320 101.5C346.7 104.3 373.3 101.7 400 100C426.7 98.3 453.3 97.7 480 94.7C506.7 91.7 533.3 86.3 560 87.3C586.7 88.3 613.3 95.7 640 97.3C666.7 99 693.3 95 720 96.5C746.7 98 773.3 105 800 105C826.7 105 853.3 98 880 97C906.7 96 933.3 101 946.7 103.5L960 106L960 0L946.7 0C933.3 0 906.7 0 880 0C853.3 0 826.7 0 800 0C773.3 0 746.7 0 720 0C693.3 0 666.7 0 640 0C613.3 0 586.7 0 560 0C533.3 0 506.7 0 480 0C453.3 0 426.7 0 400 0C373.3 0 346.7 0 320 0C293.3 0 266.7 0 240 0C213.3 0 186.7 0 160 0C133.3 0 106.7 0 80 0C53.3 0 26.7 0 13.3 0L0 0Z" fill="#822c15"></path><path d="M0 78L13.3 76.8C26.7 75.7 53.3 73.3 80 74.2C106.7 75 133.3 79 160 76.8C186.7 74.7 213.3 66.3 240 63.8C266.7 61.3 293.3 64.7 320 67.7C346.7 70.7 373.3 73.3 400 72.2C426.7 71 453.3 66 480 63.2C506.7 60.3 533.3 59.7 560 59.2C586.7 58.7 613.3 58.3 640 61.5C666.7 64.7 693.3 71.3 720 71.2C746.7 71 773.3 64 800 65.5C826.7 67 853.3 77 880 80.8C906.7 84.7 933.3 82.3 946.7 81.2L960 80L960 0L946.7 0C933.3 0 906.7 0 880 0C853.3 0 826.7 0 800 0C773.3 0 746.7 0 720 0C693.3 0 666.7 0 640 0C613.3 0 586.7 0 560 0C533.3 0 506.7 0 480 0C453.3 0 426.7 0 400 0C373.3 0 346.7 0 320 0C293.3 0 266.7 0 240 0C213.3 0 186.7 0 160 0C133.3 0 106.7 0 80 0C53.3 0 26.7 0 13.3 0L0 0Z" fill="#823918"></path><path d="M0 40L13.3 42.5C26.7 45 53.3 50 80 52C106.7 54 133.3 53 160 50.5C186.7 48 213.3 44 240 42.8C266.7 41.7 293.3 43.3 320 46.2C346.7 49 373.3 53 400 51.2C426.7 49.3 453.3 41.7 480 42.2C506.7 42.7 533.3 51.3 560 51.7C586.7 52 613.3 44 640 39.5C666.7 35 693.3 34 720 34.3C746.7 34.7 773.3 36.3 800 38.3C826.7 40.3 853.3 42.7 880 42.8C906.7 43 933.3 41 946.7 40L960 39L960 0L946.7 0C933.3 0 906.7 0 880 0C853.3 0 826.7 0 800 0C773.3 0 746.7 0 720 0C693.3 0 666.7 0 640 0C613.3 0 586.7 0 560 0C533.3 0 506.7 0 480 0C453.3 0 426.7 0 400 0C373.3 0 346.7 0 320 0C293.3 0 266.7 0 240 0C213.3 0 186.7 0 160 0C133.3 0 106.7 0 80 0C53.3 0 26.7 0 13.3 0L0 0Z" fill="#83451e"></path><path d="M0 24L13.3 23C26.7 22 53.3 20 80 21C106.7 22 133.3 26 160 25C186.7 24 213.3 18 240 15.2C266.7 12.3 293.3 12.7 320 13.2C346.7 13.7 373.3 14.3 400 13.8C426.7 13.3 453.3 11.7 480 12.8C506.7 14 533.3 18 560 22.7C586.7 27.3 613.3 32.7 640 30.7C666.7 28.7 693.3 19.3 720 18C746.7 16.7 773.3 23.3 800 26.7C826.7 30 853.3 30 880 26.5C906.7 23 933.3 16 946.7 12.5L960 9L960 0L946.7 0C933.3 0 906.7 0 880 0C853.3 0 826.7 0 800 0C773.3 0 746.7 0 720 0C693.3 0 666.7 0 640 0C613.3 0 586.7 0 560 0C533.3 0 506.7 0 480 0C453.3 0 426.7 0 400 0C373.3 0 346.7 0 320 0C293.3 0 266.7 0 240 0C213.3 0 186.7 0 160 0C133.3 0 106.7 0 80 0C53.3 0 26.7 0 13.3 0L0 0Z" fill="#835025"></path></svg>